<?xml version="1.0" encoding="UTF-8" standalone="no"?>
<svg xmlns:dc="http://purl.org/dc/elements/1.1/" xmlns:cc="http://creativecommons.org/ns#" xmlns:rdf="http://www.w3.org/1999/02/22-rdf-syntax-ns#" xmlns:svg="http://www.w3.org/2000/svg" xmlns="http://www.w3.org/2000/svg" width="38" height="42" viewBox="0 0 38 42" version="1.1" id="svg24">
  <g fill="none" fill-rule="evenodd" id="g22" transform="matrix(0.81576688,0,0,0.81576688,0,4.9628505e-5)">
    <path fill="#ffc600" d="m 19.882,25.025 v 12.206 a 4.639,4.639 0 0 0 1.473,-0.528 l 10.1,-5.807 a 4.786,4.786 0 0 0 2.395,-4.14 V 15.175 c 0,-0.47 -0.078,-0.926 -0.213,-1.363 L 22.66,20.145 c -2.257,1.596 -2.745,3.107 -2.777,4.88" id="path10" />
    <path fill="#f6eb61" d="m 37.643,11.5 -4.006,2.312 c 0.135,0.436 0.212,0.893 0.212,1.361 v 11.584 c 0,1.703 -0.917,3.29 -2.394,4.14 l -10.1,5.806 a 4.645,4.645 0 0 1 -1.472,0.529 v 4.61 a 5.77,5.77 0 0 0 2.03,-0.695 L 35.029,33.605 A 5.922,5.922 0 0 0 37.99,28.486 V 13.444 A 5.74,5.74 0 0 0 37.643,11.5" id="path12" />
    <path fill="#439879" d="m 18.962,21.189 c 0.597,-0.975 1.487,-1.816 2.766,-2.621 l 11.05,-6.376 A 4.672,4.672 0 0 0 31.455,11.034 L 21.355,5.228 A 4.791,4.791 0 0 0 16.588,5.23 L 6.53,11.033 C 6,11.338 5.556,11.749 5.19,12.217 l 10.998,6.346 c 1.286,0.81 2.177,1.651 2.774,2.626" id="path14" />
    <path fill="#28cdfb" d="M 6.53,11.033 16.588,5.23 a 4.791,4.791 0 0 1 4.767,-0.003 l 10.1,5.808 c 0.52,0.299 0.96,0.7 1.322,1.157 l 4,-2.307 A 5.779,5.779 0 0 0 35.028,8.325 L 21.912,0.783 A 5.926,5.926 0 0 0 16.018,0.787 L 2.955,8.323 A 5.863,5.863 0 0 0 1.192,9.91 l 3.997,2.306 a 4.68,4.68 0 0 1 1.34,-1.184" id="path16" />
    <path fill="#fdd757" d="M 16.588,36.7 6.53,30.897 A 4.786,4.786 0 0 1 4.14,26.761 V 15.17 c 0,-0.456 0.075,-0.9 0.201,-1.326 L 0.333,11.531 A 5.77,5.77 0 0 0 0,13.438 v 15.055 a 5.918,5.918 0 0 0 2.955,5.114 l 13.062,7.537 c 0.62,0.356 1.3,0.585 2.024,0.696 V 37.227 A 4.63,4.63 0 0 1 16.588,36.7" id="path18" />
    <path fill="#ec8b00" d="M 15.247,20.133 4.341,13.843 c -0.126,0.426 -0.2,0.87 -0.2,1.326 V 26.76 c 0,1.702 0.916,3.287 2.39,4.136 L 16.587,36.7 c 0.457,0.262 0.949,0.43 1.453,0.525 V 25.022 c -0.032,-1.77 -0.519,-3.281 -2.794,-4.889" id="path20" />
  </g>
  <path id="path3" style="fill:#242424;fill-rule:evenodd;stroke-width:0.175827" d="m 30.08295,21.625735 c 2.128383,0 3.499305,2.232648 3.527788,5.001392 h -7.055576 c 0.02866,-2.768744 1.399405,-5.001392 3.527788,-5.001392 z m 0,-2.764525 c -3.316269,0 -6.003429,3.509151 -6.003429,7.837479 l 0.0014,0.10866 c -1.127928,0.413017 -1.931105,1.492242 -1.931105,2.758722 v 6.893464 c 0,3.069935 3.552053,5.557884 7.933128,5.557884 4.381251,0 7.933479,-2.487949 7.933479,-5.557884 v -6.893464 c 0,-1.26648 -0.803529,-2.345705 -1.931281,-2.758722 l 0.0014,-0.10866 c -1.3e-5,-4.328328 -2.68735,-7.837479 -6.003618,-7.837479 z m -2.251286,14.285574 c 0,-1.239403 1.007663,-2.244254 2.251286,-2.244254 1.243622,0 2.251286,1.004851 2.251286,2.244254 0,0.79333 -0.413017,1.491186 -1.036323,1.890313 v 2.064206 H 28.867987 V 35.037097 C 28.244681,34.63797 27.831664,33.940114 27.831664,33.146784 Z" />
</svg>
